<svg version="1.1" id="Layer_1" xmlns="http://www.w3.org/2000/svg" xmlns:xlink="http://www.w3.org/1999/xlink" x="0px" y="0px"
	 width="100%" viewBox="0 0 836 1385" enable-background="new 0 0 836 1385" xml:space="preserve">
<path fill="#FEFEFE" opacity="1.000000" stroke="none" 
	d="
M837.000000,395.000000 
	C837.000000,725.666687 837.000000,1055.833374 837.000000,1386.000000 
	C558.333313,1386.000000 279.666656,1386.000000 1.000000,1386.000000 
	C1.000000,924.333313 1.000000,462.666656 1.000000,1.000000 
	C279.666656,1.000000 558.333313,1.000000 837.000000,1.000000 
	C837.000000,132.166672 837.000000,263.333344 837.000000,395.000000 
M587.034607,916.404907 
	C581.510559,908.544373 575.801331,900.805115 570.539001,892.773071 
	C567.826416,888.632751 565.217896,888.598633 561.649658,891.336975 
	C558.652649,893.637024 555.402283,895.607117 552.407166,897.909546 
	C543.535278,904.729797 543.563171,904.765686 535.996765,896.187805 
	C535.666077,895.812988 535.333130,895.439636 534.987915,895.078369 
	C526.262512,885.948425 517.535400,876.820068 508.440430,867.306458 
	C512.475464,862.871338 516.637024,858.454285 520.605774,853.870239 
	C522.666443,851.489990 524.730896,848.826904 521.341003,845.846985 
	C519.007935,843.796143 516.781616,841.577209 514.243042,839.814270 
	C495.540161,826.826050 476.970276,813.535461 455.598724,805.148254 
	C451.566589,803.565796 451.418304,801.379517 451.419861,798.046143 
	C451.463867,704.051453 451.455231,610.056702 451.455261,516.062012 
	C451.455261,515.228699 451.151855,514.219116 451.513641,513.595520 
	C452.555298,511.800262 453.519226,509.537354 455.161804,508.624481 
	C457.040924,507.580170 459.616638,507.502380 461.890533,507.498383 
	C496.888489,507.436554 531.886536,507.440277 566.884583,507.478668 
	C570.361816,507.482483 573.845154,507.730743 577.314209,508.008423 
	C583.364258,508.492706 588.965393,508.024841 592.320190,501.910004 
	C594.228699,498.431396 596.202637,494.988647 598.110474,491.509674 
	C605.658264,477.746490 613.153748,463.954529 620.739014,450.212097 
	C632.553467,428.807495 644.392944,407.416534 656.284485,386.054688 
	C663.835205,372.490753 671.679565,359.086761 679.023926,345.413177 
	C681.928406,340.005737 686.311646,335.039276 685.505249,328.085541 
	C684.933594,323.156433 682.926575,320.949951 677.941711,321.023193 
	C672.130127,321.108551 666.321045,321.517792 660.510803,321.521118 
	C594.847839,321.558380 529.184875,321.559113 463.521912,321.498840 
	C460.499603,321.496063 457.477844,320.823303 454.455261,320.462555 
	C454.455261,300.587280 454.455231,281.425751 454.455261,262.264221 
	C454.455261,254.459473 454.455322,254.455902 462.444031,254.455811 
	C539.106384,254.454880 615.768738,254.452087 692.431091,254.473038 
	C694.412231,254.473572 696.391174,254.805298 698.374756,254.868668 
	C710.076355,255.242615 709.802368,255.695465 714.751221,246.076706 
	C721.865967,232.248215 728.680603,218.265411 735.635986,204.354782 
	C758.992493,157.641754 782.395996,110.952026 805.621704,64.174049 
	C807.163940,61.067917 808.426758,57.155235 807.979736,53.867847 
	C807.039673,46.953304 802.925964,44.522514 794.542297,44.551067 
	C699.601624,44.874409 604.661194,45.401932 509.720276,45.488949 
	C421.914948,45.569427 334.109161,45.181030 246.303589,45.002926 
	C239.750198,44.989632 238.649185,46.026760 238.567337,52.826008 
	C238.471603,60.778820 238.543976,68.733665 238.544846,76.687630 
	C238.555542,173.327499 238.446594,269.967590 238.608994,366.607178 
	C238.795395,477.540009 239.238281,588.472351 239.533569,699.404968 
	C239.608093,727.403198 239.544739,755.401855 239.544739,783.400269 
	C239.544739,789.721436 239.544739,796.042603 239.544739,802.294617 
	C215.635178,811.529968 193.944656,824.137390 173.652771,839.182434 
	C170.876541,841.240784 168.786591,844.224731 166.374176,846.785156 
	C170.657425,851.140747 174.177979,854.739197 177.718842,858.317627 
	C185.271225,865.950134 185.164200,869.647583 177.827347,877.755188 
	C171.876648,884.330994 166.100494,891.083252 160.569580,898.014771 
	C155.761642,904.040283 155.908600,904.300293 149.055664,900.708801 
	C141.084274,896.531006 133.217438,892.153748 124.741653,887.557434 
	C123.288345,889.302307 121.964455,890.795105 120.745987,892.369446 
	C105.104149,912.579712 92.358948,934.445496 82.670235,958.128296 
	C80.740479,962.845276 82.060333,965.488098 85.901344,968.024719 
	C93.223335,972.860229 100.406212,977.906494 107.094070,982.486694 
	C103.971016,994.421997 100.951805,1005.786804 98.035858,1017.178101 
	C96.593071,1022.814453 94.363136,1024.877930 88.670052,1024.974121 
	C82.005661,1025.086670 75.337906,1025.004150 68.671616,1024.998901 
	C65.586777,1024.996582 62.747288,1025.061768 62.848518,1029.471802 
	C62.907459,1032.039429 62.194965,1034.614990 61.998474,1037.199951 
	C60.152439,1061.484009 60.246094,1085.703247 64.241783,1109.999390 
	C71.877007,1109.999390 79.192162,1109.999390 86.507317,1109.999390 
	C95.161415,1109.999390 96.254303,1111.188843 98.054993,1119.852905 
	C100.528336,1131.753662 103.401649,1143.571289 106.237206,1156.010864 
	C98.876511,1159.278809 91.312340,1162.746704 83.653015,1165.989990 
	C79.984779,1167.543335 79.141495,1169.664185 80.996399,1173.204468 
	C87.709129,1186.015869 93.768509,1199.208496 101.140327,1211.624268 
	C107.886284,1222.985962 116.011185,1233.528687 123.667114,1244.633545 
	C132.997620,1238.170776 141.396271,1232.353516 149.303146,1226.876831 
	C160.366821,1238.351807 170.672409,1249.232300 181.241898,1259.849854 
	C183.496994,1262.115234 183.003403,1263.814941 181.623398,1265.797852 
	C176.773361,1272.766724 171.893951,1279.716675 166.905029,1286.586182 
	C165.147858,1289.005615 164.925110,1290.569336 167.823746,1292.424561 
	C171.899368,1295.033081 175.548843,1298.296509 179.511337,1301.094604 
	C199.330093,1315.089722 220.942398,1325.618530 243.547394,1334.263550 
	C245.928406,1335.174072 247.177216,1335.203369 248.056137,1332.682251 
	C248.581223,1331.175903 249.411057,1329.778687 249.995529,1328.289795 
	C252.331375,1322.340332 254.646393,1316.382202 256.924713,1310.410278 
	C258.060059,1307.434448 259.936493,1306.889404 262.959045,1307.762939 
	C274.023132,1310.960449 285.148285,1313.947754 296.261200,1316.974854 
	C302.982727,1318.805664 302.956238,1319.238770 302.593903,1326.126221 
	C302.178070,1334.030640 302.497437,1341.973755 302.497437,1350.341187 
	C313.921387,1351.227295 325.332336,1352.538818 336.771698,1352.870361 
	C346.671906,1353.157349 356.621002,1352.578735 366.516785,1351.912231 
	C373.146210,1351.465454 379.786377,1350.523926 386.301422,1349.208008 
	C393.579437,1347.738159 393.910858,1346.990356 393.983521,1339.525269 
	C394.038422,1333.888428 393.994385,1328.250610 393.994385,1322.937378 
	C407.320526,1318.940674 420.522400,1315.121216 433.614868,1310.957764 
	C436.961639,1309.893433 438.652924,1310.463867 440.221436,1313.579346 
	C442.601013,1318.305786 445.411743,1322.817017 448.083008,1327.394165 
	C450.850128,1332.135498 453.327240,1333.184204 458.099213,1330.826904 
	C470.015686,1324.940308 482.119354,1319.330811 493.553833,1312.600830 
	C503.821289,1306.557617 513.353149,1299.248657 523.097717,1292.340454 
	C527.489319,1289.227051 527.961487,1286.056641 524.859314,1281.611084 
	C521.514954,1276.818359 517.719910,1272.329346 514.561340,1267.424683 
	C513.658997,1266.023438 513.415955,1262.852539 514.344421,1261.825195 
	C523.896301,1251.255859 533.751160,1240.960571 543.466003,1230.647827 
	C549.420715,1235.276611 554.790039,1239.550659 560.270142,1243.677612 
	C564.445251,1246.821777 568.704590,1246.027588 571.767334,1241.633667 
	C576.931641,1234.224854 582.623352,1227.104980 587.038025,1219.269165 
	C595.695312,1203.902832 603.692261,1188.161499 611.784363,1172.483276 
	C612.927979,1170.267578 613.197937,1167.531616 610.101440,1166.004150 
	C604.760986,1163.369507 599.669128,1159.917358 594.044739,1158.272583 
	C589.652771,1156.988281 589.571289,1154.864136 590.181030,1151.572754 
	C592.539185,1138.842529 594.923462,1126.117310 597.387451,1112.910522 
	C607.101929,1111.891846 617.008057,1110.853027 626.819458,1109.824219 
	C630.864014,1088.414062 634.407593,1037.862549 628.065857,1022.901245 
	C618.801819,1022.901245 609.478333,1022.901245 600.276733,1022.901245 
	C596.497009,1007.414978 592.899231,992.051453 588.914124,976.789124 
	C587.933594,973.033813 589.393982,972.080566 592.396179,970.925903 
	C598.341797,968.639160 604.117126,965.909729 610.023315,963.336914 
	C609.335327,961.658691 608.760376,959.980713 607.982666,958.402710 
	C601.175171,944.590454 594.331604,930.795959 587.034607,916.404907 
z"/>
<path fill="#000000" opacity="1.000000" stroke="none" 
	d="
M587.266602,916.700562 
	C594.331604,930.795959 601.175171,944.590454 607.982666,958.402710 
	C608.760376,959.980713 609.335327,961.658691 610.023315,963.336914 
	C604.117126,965.909729 598.341797,968.639160 592.396179,970.925903 
	C589.393982,972.080566 587.933594,973.033813 588.914124,976.789124 
	C592.899231,992.051453 596.497009,1007.414978 600.276733,1022.901245 
	C609.478333,1022.901245 618.801819,1022.901245 628.065857,1022.901245 
	C634.407593,1037.862549 630.864014,1088.414062 626.819458,1109.824219 
	C617.008057,1110.853027 607.101929,1111.891846 597.387451,1112.910522 
	C594.923462,1126.117310 592.539185,1138.842529 590.181030,1151.572754 
	C589.571289,1154.864136 589.652771,1156.988281 594.044739,1158.272583 
	C599.669128,1159.917358 604.760986,1163.369507 610.101440,1166.004150 
	C613.197937,1167.531616 612.927979,1170.267578 611.784363,1172.483276 
	C603.692261,1188.161499 595.695312,1203.902832 587.038025,1219.269165 
	C582.623352,1227.104980 576.931641,1234.224854 571.767334,1241.633667 
	C568.704590,1246.027588 564.445251,1246.821777 560.270142,1243.677612 
	C554.790039,1239.550659 549.420715,1235.276611 543.466003,1230.647827 
	C533.751160,1240.960571 523.896301,1251.255859 514.344421,1261.825195 
	C513.415955,1262.852539 513.658997,1266.023438 514.561340,1267.424683 
	C517.719910,1272.329346 521.514954,1276.818359 524.859314,1281.611084 
	C527.961487,1286.056641 527.489319,1289.227051 523.097717,1292.340454 
	C513.353149,1299.248657 503.821289,1306.557617 493.553833,1312.600830 
	C482.119354,1319.330811 470.015686,1324.940308 458.099213,1330.826904 
	C453.327240,1333.184204 450.850128,1332.135498 448.083008,1327.394165 
	C445.411743,1322.817017 442.601013,1318.305786 440.221436,1313.579346 
	C438.652924,1310.463867 436.961639,1309.893433 433.614868,1310.957764 
	C420.522400,1315.121216 407.320526,1318.940674 393.994385,1322.937378 
	C393.994385,1328.250610 394.038422,1333.888428 393.983521,1339.525269 
	C393.910858,1346.990356 393.579437,1347.738159 386.301422,1349.208008 
	C379.786377,1350.523926 373.146210,1351.465454 366.516785,1351.912231 
	C356.621002,1352.578735 346.671906,1353.157349 336.771698,1352.870361 
	C325.332336,1352.538818 313.921387,1351.227295 302.497437,1350.341187 
	C302.497437,1341.973755 302.178070,1334.030640 302.593903,1326.126221 
	C302.956238,1319.238770 302.982727,1318.805664 296.261200,1316.974854 
	C285.148285,1313.947754 274.023132,1310.960449 262.959045,1307.762939 
	C259.936493,1306.889404 258.060059,1307.434448 256.924713,1310.410278 
	C254.646393,1316.382202 252.331375,1322.340332 249.995529,1328.289795 
	C249.411057,1329.778687 248.581223,1331.175903 248.056137,1332.682251 
	C247.177216,1335.203369 245.928406,1335.174072 243.547394,1334.263550 
	C220.942398,1325.618530 199.330093,1315.089722 179.511337,1301.094604 
	C175.548843,1298.296509 171.899368,1295.033081 167.823746,1292.424561 
	C164.925110,1290.569336 165.147858,1289.005615 166.905029,1286.586182 
	C171.893951,1279.716675 176.773361,1272.766724 181.623398,1265.797852 
	C183.003403,1263.814941 183.496994,1262.115234 181.241898,1259.849854 
	C170.672409,1249.232300 160.366821,1238.351807 149.303146,1226.876831 
	C141.396271,1232.353516 132.997620,1238.170776 123.667114,1244.633545 
	C116.011185,1233.528687 107.886284,1222.985962 101.140327,1211.624268 
	C93.768509,1199.208496 87.709129,1186.015869 80.996399,1173.204468 
	C79.141495,1169.664185 79.984779,1167.543335 83.653015,1165.989990 
	C91.312340,1162.746704 98.876511,1159.278809 106.237206,1156.010864 
	C103.401649,1143.571289 100.528336,1131.753662 98.054993,1119.852905 
	C96.254303,1111.188843 95.161415,1109.999390 86.507317,1109.999390 
	C79.192162,1109.999390 71.877007,1109.999390 64.241783,1109.999390 
	C60.246094,1085.703247 60.152439,1061.484009 61.998474,1037.199951 
	C62.194965,1034.614990 62.907459,1032.039429 62.848518,1029.471802 
	C62.747288,1025.061768 65.586777,1024.996582 68.671616,1024.998901 
	C75.337906,1025.004150 82.005661,1025.086670 88.670052,1024.974121 
	C94.363136,1024.877930 96.593071,1022.814453 98.035858,1017.178101 
	C100.951805,1005.786804 103.971016,994.421997 107.094070,982.486694 
	C100.406212,977.906494 93.223335,972.860229 85.901344,968.024719 
	C82.060333,965.488098 80.740479,962.845276 82.670235,958.128296 
	C92.358948,934.445496 105.104149,912.579712 120.745987,892.369446 
	C121.964455,890.795105 123.288345,889.302307 124.741653,887.557434 
	C133.217438,892.153748 141.084274,896.531006 149.055664,900.708801 
	C155.908600,904.300293 155.761642,904.040283 160.569580,898.014771 
	C166.100494,891.083252 171.876648,884.330994 177.827347,877.755188 
	C185.164200,869.647583 185.271225,865.950134 177.718842,858.317627 
	C174.177979,854.739197 170.657425,851.140747 166.374176,846.785156 
	C168.786591,844.224731 170.876541,841.240784 173.652771,839.182434 
	C193.944656,824.137390 215.635178,811.529968 239.544739,802.294617 
	C239.544739,796.042603 239.544739,789.721436 239.544739,783.400269 
	C239.544739,755.401855 239.608093,727.403198 239.533569,699.404968 
	C239.238281,588.472351 238.795395,477.540009 238.608994,366.607178 
	C238.446594,269.967590 238.555542,173.327499 238.544846,76.687630 
	C238.543976,68.733665 238.471603,60.778820 238.567337,52.826008 
	C238.649185,46.026760 239.750198,44.989632 246.303589,45.002926 
	C334.109161,45.181030 421.914948,45.569427 509.720276,45.488949 
	C604.661194,45.401932 699.601624,44.874409 794.542297,44.551067 
	C802.925964,44.522514 807.039673,46.953304 807.979736,53.867847 
	C808.426758,57.155235 807.163940,61.067917 805.621704,64.174049 
	C782.395996,110.952026 758.992493,157.641754 735.635986,204.354782 
	C728.680603,218.265411 721.865967,232.248215 714.751221,246.076706 
	C709.802368,255.695465 710.076355,255.242615 698.374756,254.868668 
	C696.391174,254.805298 694.412231,254.473572 692.431091,254.473038 
	C615.768738,254.452087 539.106384,254.454880 462.444031,254.455811 
	C454.455322,254.455902 454.455261,254.459473 454.455261,262.264221 
	C454.455231,281.425751 454.455261,300.587280 454.455261,320.462555 
	C457.477844,320.823303 460.499603,321.496063 463.521912,321.498840 
	C529.184875,321.559113 594.847839,321.558380 660.510803,321.521118 
	C666.321045,321.517792 672.130127,321.108551 677.941711,321.023193 
	C682.926575,320.949951 684.933594,323.156433 685.505249,328.085541 
	C686.311646,335.039276 681.928406,340.005737 679.023926,345.413177 
	C671.679565,359.086761 663.835205,372.490753 656.284485,386.054688 
	C644.392944,407.416534 632.553467,428.807495 620.739014,450.212097 
	C613.153748,463.954529 605.658264,477.746490 598.110474,491.509674 
	C596.202637,494.988647 594.228699,498.431396 592.320190,501.910004 
	C588.965393,508.024841 583.364258,508.492706 577.314209,508.008423 
	C573.845154,507.730743 570.361816,507.482483 566.884583,507.478668 
	C531.886536,507.440277 496.888489,507.436554 461.890533,507.498383 
	C459.616638,507.502380 457.040924,507.580170 455.161804,508.624481 
	C453.519226,509.537354 452.555298,511.800262 451.513641,513.595520 
	C451.151855,514.219116 451.455261,515.228699 451.455261,516.062012 
	C451.455231,610.056702 451.463867,704.051453 451.419861,798.046143 
	C451.418304,801.379517 451.566589,803.565796 455.598724,805.148254 
	C476.970276,813.535461 495.540161,826.826050 514.243042,839.814270 
	C516.781616,841.577209 519.007935,843.796143 521.341003,845.846985 
	C524.730896,848.826904 522.666443,851.489990 520.605774,853.870239 
	C516.637024,858.454285 512.475464,862.871338 508.440430,867.306458 
	C517.535400,876.820068 526.262512,885.948425 534.987915,895.078369 
	C535.333130,895.439636 535.666077,895.812988 535.996765,896.187805 
	C543.563171,904.765686 543.535278,904.729797 552.407166,897.909546 
	C555.402283,895.607117 558.652649,893.637024 561.649658,891.336975 
	C565.217896,888.598633 567.826416,888.632751 570.539001,892.773071 
	C575.801331,900.805115 581.510559,908.544373 587.266602,916.700562 
M635.627441,373.372131 
	C640.111938,365.295532 644.560852,357.198853 649.098999,349.152527 
	C650.846985,346.053253 649.360168,344.879608 646.525330,344.490417 
	C645.216309,344.310669 643.863037,344.449280 642.529846,344.449249 
	C574.035156,344.448700 505.540497,344.448761 437.045807,344.448761 
	C435.128418,344.448761 433.211029,344.448761 431.154968,344.448761 
	C431.154968,306.539734 431.154968,269.422455 431.154968,231.153961 
	C453.081055,229.844238 474.975983,230.753006 496.836456,230.587799 
	C518.833496,230.421555 540.832764,230.551208 562.831055,230.551208 
	C584.996033,230.551208 607.160950,230.551208 629.325928,230.551208 
	C651.321655,230.551208 673.317322,230.551208 695.598572,230.551208 
	C698.633118,224.706787 701.777710,218.891449 704.704163,212.968353 
	C712.984924,196.207932 721.149231,179.390060 729.412476,162.620926 
	C734.944946,151.393539 740.556885,140.205231 746.155029,129.010284 
	C748.580200,124.160591 751.063293,119.339844 753.514465,114.503105 
	C756.224609,109.155228 758.965149,103.822319 761.625305,98.449661 
	C764.860291,91.915993 768.263855,85.448517 771.099304,78.742981 
	C772.182495,76.181152 772.463501,72.926849 771.925903,70.223602 
	C771.736389,69.270760 768.014587,68.515083 765.908264,68.521713 
	C687.468140,68.768570 609.028625,69.253937 530.588440,69.411057 
	C446.928589,69.578636 363.268097,69.505829 279.608032,69.399391 
	C263.385468,69.378754 263.163940,69.361862 263.418640,85.574753 
	C263.579956,95.843315 263.448761,106.116470 263.448761,117.551208 
	C277.147278,117.551208 290.245636,117.551208 303.344025,117.551208 
	C320.509369,117.551208 337.674683,117.544563 354.840027,117.554794 
	C360.927643,117.558418 364.611786,120.702751 364.435608,125.692093 
	C364.286682,129.910355 359.874725,133.445343 354.713531,133.446304 
	C326.715698,133.451553 298.717834,133.426285 270.720154,133.489212 
	C268.341888,133.494553 265.964905,134.070236 263.710205,134.364899 
	C263.710205,148.119385 263.710205,161.215088 263.710205,174.658356 
	C269.883270,174.964081 275.808838,175.442368 281.739166,175.511841 
	C293.236694,175.646591 304.737305,175.497726 316.235901,175.574661 
	C321.771851,175.611679 324.499481,178.448853 324.448669,183.756210 
	C324.406128,188.198349 320.577667,191.412140 315.011810,191.430847 
	C299.679840,191.482361 284.347595,191.448746 269.015442,191.448807 
	C267.266968,191.448807 265.518494,191.448792 263.448792,191.448792 
	C263.448792,203.407867 263.694092,214.562515 263.331940,225.697388 
	C263.180267,230.360306 264.600922,231.706192 269.158173,231.638184 
	C284.486908,231.409409 299.821136,231.548828 315.153290,231.552261 
	C322.148163,231.553833 325.381348,234.011047 325.447723,239.358444 
	C325.518158,245.031433 322.550110,247.443573 315.455292,247.446869 
	C301.456390,247.453384 287.456757,247.373825 273.459076,247.503387 
	C270.107849,247.534393 266.762939,248.246277 263.647797,248.617310 
	C263.647797,261.596436 263.647797,273.892303 263.647797,286.788696 
	C268.897980,287.048615 273.973175,287.474854 279.051544,287.516785 
	C291.716370,287.621368 304.382660,287.539032 317.048309,287.556305 
	C323.534088,287.565155 326.558868,290.230072 326.447388,295.757965 
	C326.341827,300.990173 323.385376,303.437012 317.056000,303.443604 
	C301.890503,303.459442 286.724548,303.387054 271.559998,303.506134 
	C268.859894,303.527344 266.165680,304.298920 263.448944,304.727142 
	C263.448944,318.294556 263.521759,331.124329 263.401184,343.952332 
	C263.368286,347.450989 264.758545,348.669708 268.158264,348.596497 
	C275.154480,348.445770 282.156189,348.551208 289.155640,348.551239 
	C311.320587,348.551239 333.485565,348.531738 355.650452,348.563873 
	C361.840698,348.572845 364.585266,351.383728 364.448456,357.337555 
	C364.332855,362.367737 360.288940,365.431427 353.516693,365.437744 
	C325.352203,365.463928 297.187714,365.448761 269.023224,365.448792 
	C267.250885,365.448792 265.478546,365.448761 263.449768,365.448761 
	C263.449768,377.472656 263.453339,388.947723 263.447662,400.422821 
	C263.445862,404.040955 264.841858,405.681396 268.846863,405.634064 
	C285.509918,405.437103 302.176727,405.521088 318.841980,405.567261 
	C324.918243,405.584106 327.670502,408.534790 327.456757,414.527222 
	C327.292053,419.145233 323.427094,422.419617 317.873169,422.433685 
	C301.374542,422.475464 284.875763,422.448700 268.377045,422.448730 
	C266.785889,422.448730 265.194733,422.448761 263.886475,422.448761 
	C263.886475,436.169708 263.886475,449.233643 263.886475,462.551208 
	C265.978241,462.551208 267.633087,462.551208 269.287933,462.551208 
	C284.953369,462.551208 300.618866,462.532288 316.284271,462.559692 
	C323.446594,462.572235 327.425934,465.600220 327.448395,470.930054 
	C327.471649,476.459259 323.636932,479.444000 316.468353,479.446777 
	C300.302948,479.453064 284.137543,479.442688 267.972137,479.459290 
	C266.533203,479.460754 265.094421,479.609741 263.448792,479.701813 
	C263.448792,491.347504 263.435516,502.660797 263.454468,513.974060 
	C263.463684,519.483887 264.560242,520.542725 270.233429,520.546997 
	C286.398834,520.559082 302.564301,520.527283 318.729614,520.564636 
	C324.258362,520.577454 328.453430,524.300964 328.445312,529.011719 
	C328.437073,533.788330 324.321594,537.441895 318.892426,537.445190 
	C302.727020,537.455078 286.561340,537.404419 270.396454,537.498047 
	C268.056793,537.511597 265.720947,538.187500 263.448761,538.546631 
	C263.448761,541.299744 263.448761,543.298523 263.448761,545.297302 
	C263.448761,671.120850 263.448792,796.944458 263.448730,922.768005 
	C263.448730,924.101257 263.830109,925.582336 263.381439,926.742188 
	C261.406891,931.846680 263.089813,937.937561 257.080597,942.019287 
	C237.789246,955.122803 222.494507,972.205994 211.179016,992.563782 
	C196.962479,1018.140930 189.892136,1045.492188 191.300095,1075.029907 
	C191.982758,1089.351196 194.298218,1103.241089 198.803391,1116.721436 
	C209.165070,1147.725952 227.410782,1173.220947 253.599808,1192.865601 
	C277.301178,1210.644043 304.195892,1220.763306 333.512177,1223.342041 
	C356.449341,1225.359619 379.017029,1222.132812 400.676666,1213.620239 
	C428.547546,1202.666382 451.730499,1185.629028 469.871918,1161.702148 
	C481.393372,1146.506348 489.554504,1129.734741 494.947021,1111.495361 
	C500.775726,1091.780518 503.105713,1071.684326 500.396545,1051.327148 
	C497.817535,1031.948120 492.124817,1013.443298 482.826508,996.027893 
	C471.710541,975.208130 456.675903,957.914612 437.876892,943.861816 
	C430.972168,938.700256 427.567505,932.099670 427.566254,923.668213 
	C427.545197,782.845825 427.551239,642.023376 427.551453,501.200989 
	C427.551453,500.034424 427.363251,498.829773 427.586792,497.707397 
	C429.206299,489.575775 430.004059,484.407532 441.706726,484.468048 
	C483.035767,484.681824 524.366577,484.539917 565.696716,484.566315 
	C570.607056,484.569427 575.062683,483.285370 577.643433,478.967102 
	C581.879517,471.879181 585.635437,464.505035 589.619446,457.265656 
	C595.989502,445.690247 602.377014,434.124481 608.763367,422.558044 
	C617.680298,406.408417 626.602966,390.261902 635.627441,373.372131 
z"/>
<path fill="#FDFDFD" opacity="1.000000" stroke="none" 
	d="
M635.575317,373.743103 
	C626.602966,390.261902 617.680298,406.408417 608.763367,422.558044 
	C602.377014,434.124481 595.989502,445.690247 589.619446,457.265656 
	C585.635437,464.505035 581.879517,471.879181 577.643433,478.967102 
	C575.062683,483.285370 570.607056,484.569427 565.696716,484.566315 
	C524.366577,484.539917 483.035767,484.681824 441.706726,484.468048 
	C430.004059,484.407532 429.206299,489.575775 427.586792,497.707397 
	C427.363251,498.829773 427.551453,500.034424 427.551453,501.200989 
	C427.551239,642.023376 427.545197,782.845825 427.566254,923.668213 
	C427.567505,932.099670 430.972168,938.700256 437.876892,943.861816 
	C456.675903,957.914612 471.710541,975.208130 482.826508,996.027893 
	C492.124817,1013.443298 497.817535,1031.948120 500.396545,1051.327148 
	C503.105713,1071.684326 500.775726,1091.780518 494.947021,1111.495361 
	C489.554504,1129.734741 481.393372,1146.506348 469.871918,1161.702148 
	C451.730499,1185.629028 428.547546,1202.666382 400.676666,1213.620239 
	C379.017029,1222.132812 356.449341,1225.359619 333.512177,1223.342041 
	C304.195892,1220.763306 277.301178,1210.644043 253.599808,1192.865601 
	C227.410782,1173.220947 209.165070,1147.725952 198.803391,1116.721436 
	C194.298218,1103.241089 191.982758,1089.351196 191.300095,1075.029907 
	C189.892136,1045.492188 196.962479,1018.140930 211.179016,992.563782 
	C222.494507,972.205994 237.789246,955.122803 257.080597,942.019287 
	C263.089813,937.937561 261.406891,931.846680 263.381439,926.742188 
	C263.830109,925.582336 263.448730,924.101257 263.448730,922.768005 
	C263.448792,796.944458 263.448761,671.120850 263.448761,545.297302 
	C263.448761,543.298523 263.448761,541.299744 263.448761,538.546631 
	C265.720947,538.187500 268.056793,537.511597 270.396454,537.498047 
	C286.561340,537.404419 302.727020,537.455078 318.892426,537.445190 
	C324.321594,537.441895 328.437073,533.788330 328.445312,529.011719 
	C328.453430,524.300964 324.258362,520.577454 318.729614,520.564636 
	C302.564301,520.527283 286.398834,520.559082 270.233429,520.546997 
	C264.560242,520.542725 263.463684,519.483887 263.454468,513.974060 
	C263.435516,502.660797 263.448792,491.347504 263.448792,479.701813 
	C265.094421,479.609741 266.533203,479.460754 267.972137,479.459290 
	C284.137543,479.442688 300.302948,479.453064 316.468353,479.446777 
	C323.636932,479.444000 327.471649,476.459259 327.448395,470.930054 
	C327.425934,465.600220 323.446594,462.572235 316.284271,462.559692 
	C300.618866,462.532288 284.953369,462.551208 269.287933,462.551208 
	C267.633087,462.551208 265.978241,462.551208 263.886475,462.551208 
	C263.886475,449.233643 263.886475,436.169708 263.886475,422.448761 
	C265.194733,422.448761 266.785889,422.448730 268.377045,422.448730 
	C284.875763,422.448700 301.374542,422.475464 317.873169,422.433685 
	C323.427094,422.419617 327.292053,419.145233 327.456757,414.527222 
	C327.670502,408.534790 324.918243,405.584106 318.841980,405.567261 
	C302.176727,405.521088 285.509918,405.437103 268.846863,405.634064 
	C264.841858,405.681396 263.445862,404.040955 263.447662,400.422821 
	C263.453339,388.947723 263.449768,377.472656 263.449768,365.448761 
	C265.478546,365.448761 267.250885,365.448792 269.023224,365.448792 
	C297.187714,365.448761 325.352203,365.463928 353.516693,365.437744 
	C360.288940,365.431427 364.332855,362.367737 364.448456,357.337555 
	C364.585266,351.383728 361.840698,348.572845 355.650452,348.563873 
	C333.485565,348.531738 311.320587,348.551239 289.155640,348.551239 
	C282.156189,348.551208 275.154480,348.445770 268.158264,348.596497 
	C264.758545,348.669708 263.368286,347.450989 263.401184,343.952332 
	C263.521759,331.124329 263.448944,318.294556 263.448944,304.727142 
	C266.165680,304.298920 268.859894,303.527344 271.559998,303.506134 
	C286.724548,303.387054 301.890503,303.459442 317.056000,303.443604 
	C323.385376,303.437012 326.341827,300.990173 326.447388,295.757965 
	C326.558868,290.230072 323.534088,287.565155 317.048309,287.556305 
	C304.382660,287.539032 291.716370,287.621368 279.051544,287.516785 
	C273.973175,287.474854 268.897980,287.048615 263.647797,286.788696 
	C263.647797,273.892303 263.647797,261.596436 263.647797,248.617310 
	C266.762939,248.246277 270.107849,247.534393 273.459076,247.503387 
	C287.456757,247.373825 301.456390,247.453384 315.455292,247.446869 
	C322.550110,247.443573 325.518158,245.031433 325.447723,239.358444 
	C325.381348,234.011047 322.148163,231.553833 315.153290,231.552261 
	C299.821136,231.548828 284.486908,231.409409 269.158173,231.638184 
	C264.600922,231.706192 263.180267,230.360306 263.331940,225.697388 
	C263.694092,214.562515 263.448792,203.407867 263.448792,191.448792 
	C265.518494,191.448792 267.266968,191.448807 269.015442,191.448807 
	C284.347595,191.448746 299.679840,191.482361 315.011810,191.430847 
	C320.577667,191.412140 324.406128,188.198349 324.448669,183.756210 
	C324.499481,178.448853 321.771851,175.611679 316.235901,175.574661 
	C304.737305,175.497726 293.236694,175.646591 281.739166,175.511841 
	C275.808838,175.442368 269.883270,174.964081 263.710205,174.658356 
	C263.710205,161.215088 263.710205,148.119385 263.710205,134.364899 
	C265.964905,134.070236 268.341888,133.494553 270.720154,133.489212 
	C298.717834,133.426285 326.715698,133.451553 354.713531,133.446304 
	C359.874725,133.445343 364.286682,129.910355 364.435608,125.692093 
	C364.611786,120.702751 360.927643,117.558418 354.840027,117.554794 
	C337.674683,117.544563 320.509369,117.551208 303.344025,117.551208 
	C290.245636,117.551208 277.147278,117.551208 263.448761,117.551208 
	C263.448761,106.116470 263.579956,95.843315 263.418640,85.574753 
	C263.163940,69.361862 263.385468,69.378754 279.608032,69.399391 
	C363.268097,69.505829 446.928589,69.578636 530.588440,69.411057 
	C609.028625,69.253937 687.468140,68.768570 765.908264,68.521713 
	C768.014587,68.515083 771.736389,69.270760 771.925903,70.223602 
	C772.463501,72.926849 772.182495,76.181152 771.099304,78.742981 
	C768.263855,85.448517 764.860291,91.915993 761.625305,98.449661 
	C758.965149,103.822319 756.224609,109.155228 753.514465,114.503105 
	C751.063293,119.339844 748.580200,124.160591 746.155029,129.010284 
	C740.556885,140.205231 734.944946,151.393539 729.412476,162.620926 
	C721.149231,179.390060 712.984924,196.207932 704.704163,212.968353 
	C701.777710,218.891449 698.633118,224.706787 695.598572,230.551208 
	C673.317322,230.551208 651.321655,230.551208 629.325928,230.551208 
	C607.160950,230.551208 584.996033,230.551208 562.831055,230.551208 
	C540.832764,230.551208 518.833496,230.421555 496.836456,230.587799 
	C474.975983,230.753006 453.081055,229.844238 431.154968,231.153961 
	C431.154968,269.422455 431.154968,306.539734 431.154968,344.448761 
	C433.211029,344.448761 435.128418,344.448761 437.045807,344.448761 
	C505.540497,344.448761 574.035156,344.448700 642.529846,344.449249 
	C643.863037,344.449280 645.216309,344.310669 646.525330,344.490417 
	C649.360168,344.879608 650.846985,346.053253 649.098999,349.152527 
	C644.560852,357.198853 640.111938,365.295532 635.575317,373.743103 
M287.559631,935.901917 
	C287.203949,935.550476 286.895905,935.124817 286.484131,934.860840 
	C284.910248,933.851990 283.303070,932.895142 281.708282,931.918884 
	C280.999420,933.802490 279.772583,935.661072 279.680023,937.574463 
	C279.414734,943.059631 279.882599,948.584167 279.539246,954.060425 
	C279.246887,958.723206 279.149719,963.746277 277.325592,967.887207 
	C274.227692,974.919617 270.200531,981.626587 265.899292,988.023376 
	C260.816986,995.581787 255.093781,1002.715576 249.532059,1009.943909 
	C241.384064,1020.533569 234.006165,1031.498901 229.923874,1044.435547 
	C224.477402,1061.695190 224.694885,1079.230347 225.789780,1097.057251 
	C226.557312,1109.553711 231.322586,1120.592773 236.913269,1130.965820 
	C246.396545,1148.560791 259.138733,1163.810913 276.751801,1174.234863 
	C287.205231,1180.421387 297.546997,1186.921753 309.716553,1189.278687 
	C318.797272,1191.037476 327.889252,1193.259888 337.068604,1193.858276 
	C349.025238,1194.637573 361.240082,1195.266724 373.042023,1193.694824 
	C389.903625,1191.448975 405.577759,1184.225952 419.790161,1175.247803 
	C434.601868,1165.890991 445.780121,1152.224976 456.051849,1137.974731 
	C466.464081,1123.529541 470.662140,1106.864136 472.794525,1089.791138 
	C475.227600,1070.310791 472.403564,1050.965576 462.199249,1034.094482 
	C451.715607,1016.761536 439.252075,1000.617615 427.498413,984.064514 
	C420.582672,974.324829 414.941956,964.333862 415.904694,951.707275 
	C416.414246,945.024475 415.994904,938.270813 415.994904,930.812988 
	C414.113525,932.115723 412.769989,932.757019 411.806305,933.762390 
	C407.000000,938.776489 401.764221,943.499207 397.693970,949.066162 
	C393.221558,955.183105 388.251984,961.667358 386.299530,968.762207 
	C379.824249,992.291992 387.742737,1012.741089 402.548767,1030.984009 
	C411.894257,1042.498901 420.232330,1054.246582 424.781769,1068.851685 
	C428.432220,1080.570679 425.899292,1091.078003 421.829102,1101.180786 
	C414.808319,1118.607178 399.932831,1128.432251 383.169434,1134.868164 
	C363.909363,1142.262817 344.023682,1143.989014 323.795013,1138.055542 
	C307.939819,1133.404907 293.023407,1127.117065 282.480865,1113.817993 
	C274.713715,1104.020020 268.069214,1092.997559 269.312256,1080.043579 
	C270.127899,1071.543701 272.658752,1062.596558 276.794128,1055.171021 
	C282.922394,1044.166870 291.162048,1034.339722 298.488708,1024.001465 
	C306.511719,1012.680786 314.066437,1001.207153 312.038177,986.246216 
	C311.727631,983.955444 312.483978,981.455933 311.903625,979.277649 
	C310.124634,972.600403 309.056061,965.370911 305.637726,959.580200 
	C300.745483,951.292725 294.019226,944.087830 287.559631,935.901917 
M391.935181,771.611389 
	C391.280518,770.133545 390.713196,768.609192 389.956360,767.185669 
	C386.227295,760.171082 383.158936,752.666565 378.531494,746.298401 
	C370.114716,734.715637 359.650391,725.051514 348.103821,716.423462 
	C335.688873,707.146545 322.124268,700.446899 307.481049,695.788513 
	C305.611786,695.193848 303.260406,696.114807 301.132385,696.333618 
	C301.636108,698.279541 301.728424,700.468140 302.710083,702.132141 
	C309.233276,713.189514 316.444458,723.873352 322.400299,735.220154 
	C325.646759,741.405273 328.384888,748.578491 328.719818,755.434692 
	C329.709808,775.703064 329.492249,796.035339 329.505341,816.342773 
	C329.508423,821.100830 328.779144,825.895935 328.006378,830.611694 
	C324.642395,851.139771 319.518036,871.436707 318.842712,892.317810 
	C318.506104,902.724731 318.523834,913.353577 320.287384,923.552429 
	C321.733856,931.917664 325.710846,939.917969 329.080658,947.861694 
	C334.589752,960.848450 343.420837,971.596680 353.151062,981.619385 
	C355.866302,984.416138 359.890228,983.475647 360.331390,980.020630 
	C361.187744,973.313477 362.349152,966.561340 362.281128,959.838989 
	C362.168121,948.669434 365.204590,938.426697 369.594116,928.404968 
	C379.491089,905.809021 389.240082,883.105591 393.870209,858.740051 
	C396.684326,843.930969 400.130432,829.268494 400.747589,813.964050 
	C401.348145,799.071106 397.079712,785.789001 391.935181,771.611389 
z"/>
<path fill="#EE1D23" opacity="1.000000" stroke="none" 
	d="
M287.817871,936.161316 
	C294.019226,944.087830 300.745483,951.292725 305.637726,959.580200 
	C309.056061,965.370911 310.124634,972.600403 311.903625,979.277649 
	C312.483978,981.455933 311.727631,983.955444 312.038177,986.246216 
	C314.066437,1001.207153 306.511719,1012.680786 298.488708,1024.001465 
	C291.162048,1034.339722 282.922394,1044.166870 276.794128,1055.171021 
	C272.658752,1062.596558 270.127899,1071.543701 269.312256,1080.043579 
	C268.069214,1092.997559 274.713715,1104.020020 282.480865,1113.817993 
	C293.023407,1127.117065 307.939819,1133.404907 323.795013,1138.055542 
	C344.023682,1143.989014 363.909363,1142.262817 383.169434,1134.868164 
	C399.932831,1128.432251 414.808319,1118.607178 421.829102,1101.180786 
	C425.899292,1091.078003 428.432220,1080.570679 424.781769,1068.851685 
	C420.232330,1054.246582 411.894257,1042.498901 402.548767,1030.984009 
	C387.742737,1012.741089 379.824249,992.291992 386.299530,968.762207 
	C388.251984,961.667358 393.221558,955.183105 397.693970,949.066162 
	C401.764221,943.499207 407.000000,938.776489 411.806305,933.762390 
	C412.769989,932.757019 414.113525,932.115723 415.994904,930.812988 
	C415.994904,938.270813 416.414246,945.024475 415.904694,951.707275 
	C414.941956,964.333862 420.582672,974.324829 427.498413,984.064514 
	C439.252075,1000.617615 451.715607,1016.761536 462.199249,1034.094482 
	C472.403564,1050.965576 475.227600,1070.310791 472.794525,1089.791138 
	C470.662140,1106.864136 466.464081,1123.529541 456.051849,1137.974731 
	C445.780121,1152.224976 434.601868,1165.890991 419.790161,1175.247803 
	C405.577759,1184.225952 389.903625,1191.448975 373.042023,1193.694824 
	C361.240082,1195.266724 349.025238,1194.637573 337.068604,1193.858276 
	C327.889252,1193.259888 318.797272,1191.037476 309.716553,1189.278687 
	C297.546997,1186.921753 287.205231,1180.421387 276.751801,1174.234863 
	C259.138733,1163.810913 246.396545,1148.560791 236.913269,1130.965820 
	C231.322586,1120.592773 226.557312,1109.553711 225.789780,1097.057251 
	C224.694885,1079.230347 224.477402,1061.695190 229.923874,1044.435547 
	C234.006165,1031.498901 241.384064,1020.533569 249.532059,1009.943909 
	C255.093781,1002.715576 260.816986,995.581787 265.899292,988.023376 
	C270.200531,981.626587 274.227692,974.919617 277.325592,967.887207 
	C279.149719,963.746277 279.246887,958.723206 279.539246,954.060425 
	C279.882599,948.584167 279.414734,943.059631 279.680023,937.574463 
	C279.772583,935.661072 280.999420,933.802490 281.708313,931.918884 
	C283.303070,932.895142 284.910248,933.851990 286.484131,934.860840 
	C286.895905,935.124817 287.203949,935.550476 287.817871,936.161316 
z"/>
<path fill="#EE1D23" opacity="1.000000" stroke="none" 
	d="
M391.995422,771.996948 
	C397.079712,785.789001 401.348145,799.071106 400.747589,813.964050 
	C400.130432,829.268494 396.684326,843.930969 393.870209,858.740051 
	C389.240082,883.105591 379.491089,905.809021 369.594116,928.404968 
	C365.204590,938.426697 362.168121,948.669434 362.281128,959.838989 
	C362.349152,966.561340 361.187744,973.313477 360.331390,980.020630 
	C359.890228,983.475647 355.866302,984.416138 353.151062,981.619385 
	C343.420837,971.596680 334.589752,960.848450 329.080658,947.861694 
	C325.710846,939.917969 321.733856,931.917664 320.287384,923.552429 
	C318.523834,913.353577 318.506104,902.724731 318.842712,892.317810 
	C319.518036,871.436707 324.642395,851.139771 328.006378,830.611694 
	C328.779144,825.895935 329.508423,821.100830 329.505341,816.342773 
	C329.492249,796.035339 329.709808,775.703064 328.719818,755.434692 
	C328.384888,748.578491 325.646759,741.405273 322.400299,735.220154 
	C316.444458,723.873352 309.233276,713.189514 302.710083,702.132141 
	C301.728424,700.468140 301.636108,698.279541 301.132385,696.333618 
	C303.260406,696.114807 305.611786,695.193848 307.481049,695.788513 
	C322.124268,700.446899 335.688873,707.146545 348.103821,716.423462 
	C359.650391,725.051514 370.114716,734.715637 378.531494,746.298401 
	C383.158936,752.666565 386.227295,760.171082 389.956360,767.185669 
	C390.713196,768.609192 391.280518,770.133545 391.995422,771.996948 
z"/>
</svg>